solid OpenSCAD_Model
  facet normal -1 0 0
    outer loop
      vertex -6.92 -34.49 135.45
      vertex -6.92 34.49 135.45
      vertex -6.92 -34.49 0
    endloop
  endfacet
  facet normal -1 -0 0
    outer loop
      vertex -6.92 -34.49 0
      vertex -6.92 34.49 135.45
      vertex -6.92 34.49 0
    endloop
  endfacet
  facet normal 0 0 1
    outer loop
      vertex -6.92 -34.49 135.45
      vertex 6.92 -34.49 135.45
      vertex 6.92 34.49 135.45
    endloop
  endfacet
  facet normal 0 -0 1
    outer loop
      vertex -6.92 34.49 135.45
      vertex -6.92 -34.49 135.45
      vertex 6.92 34.49 135.45
    endloop
  endfacet
  facet normal -0 -1 0
    outer loop
      vertex -6.92 -34.49 0
      vertex 6.92 -34.49 0
      vertex 6.92 -34.49 135.45
    endloop
  endfacet
  facet normal 0 -1 0
    outer loop
      vertex -6.92 -34.49 135.45
      vertex -6.92 -34.49 0
      vertex 6.92 -34.49 135.45
    endloop
  endfacet
  facet normal 0 0 -1
    outer loop
      vertex -6.92 34.49 0
      vertex 6.92 34.49 0
      vertex -6.92 -34.49 0
    endloop
  endfacet
  facet normal -0 0 -1
    outer loop
      vertex -6.92 -34.49 0
      vertex 6.92 34.49 0
      vertex 6.92 -34.49 0
    endloop
  endfacet
  facet normal 0 1 -0
    outer loop
      vertex -6.92 34.49 135.45
      vertex 6.92 34.49 135.45
      vertex -6.92 34.49 0
    endloop
  endfacet
  facet normal 0 1 0
    outer loop
      vertex -6.92 34.49 0
      vertex 6.92 34.49 135.45
      vertex 6.92 34.49 0
    endloop
  endfacet
  facet normal 1 0 0
    outer loop
      vertex 6.92 -34.49 0
      vertex 6.92 34.49 0
      vertex 6.92 34.49 135.45
    endloop
  endfacet
  facet normal 1 0 -0
    outer loop
      vertex 6.92 -34.49 135.45
      vertex 6.92 -34.49 0
      vertex 6.92 34.49 135.45
    endloop
  endfacet
endsolid OpenSCAD_Model
