solid OpenSCAD_Model
  facet normal -1 0 0
    outer loop
      vertex -8.92 -36.49 122.5
      vertex -8.92 36.49 122.5
      vertex -8.92 -36.49 0
    endloop
  endfacet
  facet normal -1 -0 0
    outer loop
      vertex -8.92 -36.49 0
      vertex -8.92 36.49 122.5
      vertex -8.92 36.49 0
    endloop
  endfacet
  facet normal 0 0 1
    outer loop
      vertex -8.92 -36.49 122.5
      vertex 8.92 -36.49 122.5
      vertex 8.92 36.49 122.5
    endloop
  endfacet
  facet normal 0 -0 1
    outer loop
      vertex -8.92 36.49 122.5
      vertex -8.92 -36.49 122.5
      vertex 8.92 36.49 122.5
    endloop
  endfacet
  facet normal -0 -1 0
    outer loop
      vertex -8.92 -36.49 0
      vertex 8.92 -36.49 0
      vertex 8.92 -36.49 122.5
    endloop
  endfacet
  facet normal 0 -1 0
    outer loop
      vertex -8.92 -36.49 122.5
      vertex -8.92 -36.49 0
      vertex 8.92 -36.49 122.5
    endloop
  endfacet
  facet normal 0 0 -1
    outer loop
      vertex -8.92 36.49 0
      vertex 8.92 36.49 0
      vertex -8.92 -36.49 0
    endloop
  endfacet
  facet normal -0 0 -1
    outer loop
      vertex -8.92 -36.49 0
      vertex 8.92 36.49 0
      vertex 8.92 -36.49 0
    endloop
  endfacet
  facet normal 0 1 -0
    outer loop
      vertex -8.92 36.49 122.5
      vertex 8.92 36.49 122.5
      vertex -8.92 36.49 0
    endloop
  endfacet
  facet normal 0 1 0
    outer loop
      vertex -8.92 36.49 0
      vertex 8.92 36.49 122.5
      vertex 8.92 36.49 0
    endloop
  endfacet
  facet normal 1 0 0
    outer loop
      vertex 8.92 -36.49 0
      vertex 8.92 36.49 0
      vertex 8.92 36.49 122.5
    endloop
  endfacet
  facet normal 1 0 -0
    outer loop
      vertex 8.92 -36.49 122.5
      vertex 8.92 -36.49 0
      vertex 8.92 36.49 122.5
    endloop
  endfacet
endsolid OpenSCAD_Model
