solid OpenSCAD_Model
  facet normal -1 -0 -0
    outer loop
      vertex -8.92 -36.49 0
      vertex -8.92 -36.49 24.5
      vertex -8.92 36.49 0
    endloop
  endfacet
  facet normal -1 0 0
    outer loop
      vertex -8.92 36.49 0
      vertex -8.92 -36.49 24.5
      vertex -8.92 -29 24.5
    endloop
  endfacet
  facet normal -1 0 0
    outer loop
      vertex -8.92 36.49 0
      vertex -8.92 -29 24.5
      vertex -8.92 -29 44.5
    endloop
  endfacet
  facet normal -1 0 0
    outer loop
      vertex -8.92 29 24.5
      vertex -8.92 -29 44.5
      vertex -8.92 29 44.5
    endloop
  endfacet
  facet normal -1 0 0
    outer loop
      vertex -8.92 36.49 0
      vertex -8.92 -29 44.5
      vertex -8.92 29 24.5
    endloop
  endfacet
  facet normal -1 0 0
    outer loop
      vertex -8.92 36.49 24.5
      vertex -8.92 36.49 0
      vertex -8.92 29 24.5
    endloop
  endfacet
  facet normal 0 -1 0
    outer loop
      vertex -8.92 -36.49 24.5
      vertex -8.92 -36.49 0
      vertex 8.92 -36.49 0
    endloop
  endfacet
  facet normal 0 -1 0
    outer loop
      vertex 8.92 -36.49 24.5
      vertex -8.92 -36.49 24.5
      vertex 8.92 -36.49 0
    endloop
  endfacet
  facet normal 0 0 -1
    outer loop
      vertex 4.025 -5.135 0
      vertex 8.92 -36.49 0
      vertex -4.025 -5.135 0
    endloop
  endfacet
  facet normal 0 -0 -1
    outer loop
      vertex 4.025 5.135 0
      vertex -8.92 36.49 0
      vertex 8.92 36.49 0
    endloop
  endfacet
  facet normal 0 -0 -1
    outer loop
      vertex -8.92 -36.49 0
      vertex -8.92 36.49 0
      vertex -4.025 5.135 0
    endloop
  endfacet
  facet normal 0 0 -1
    outer loop
      vertex -8.92 -36.49 0
      vertex -4.025 5.135 0
      vertex -4.025 -5.135 0
    endloop
  endfacet
  facet normal -0 0 -1
    outer loop
      vertex -8.92 -36.49 0
      vertex -4.025 -5.135 0
      vertex 8.92 -36.49 0
    endloop
  endfacet
  facet normal 0 0 -1
    outer loop
      vertex 8.92 -36.49 0
      vertex 4.025 -5.135 0
      vertex 8.92 36.49 0
    endloop
  endfacet
  facet normal 0 -0 -1
    outer loop
      vertex 4.025 -5.135 0
      vertex 4.025 5.135 0
      vertex 8.92 36.49 0
    endloop
  endfacet
  facet normal -0 -0 -1
    outer loop
      vertex -4.025 5.135 0
      vertex -8.92 36.49 0
      vertex 4.025 5.135 0
    endloop
  endfacet
  facet normal 0 1 0
    outer loop
      vertex -8.92 36.49 0
      vertex -8.92 36.49 24.5
      vertex 8.92 36.49 0
    endloop
  endfacet
  facet normal 0 1 0
    outer loop
      vertex 8.92 36.49 0
      vertex -8.92 36.49 24.5
      vertex 8.92 36.49 24.5
    endloop
  endfacet
  facet normal 0 -0 1
    outer loop
      vertex -6.92 -34.49 24.5
      vertex -8.92 -36.49 24.5
      vertex 8.92 -36.49 24.5
    endloop
  endfacet
  facet normal 0 0 1
    outer loop
      vertex -6.92 -34.49 24.5
      vertex -6.92 -29 24.5
      vertex -8.92 -29 24.5
    endloop
  endfacet
  facet normal 0 0 1
    outer loop
      vertex -6.92 34.49 24.5
      vertex 6.92 34.49 24.5
      vertex 8.92 36.49 24.5
    endloop
  endfacet
  facet normal 0 0 1
    outer loop
      vertex -8.92 36.49 24.5
      vertex -6.92 34.49 24.5
      vertex 8.92 36.49 24.5
    endloop
  endfacet
  facet normal 0 -0 1
    outer loop
      vertex -8.92 36.49 24.5
      vertex -8.92 29 24.5
      vertex -6.92 34.49 24.5
    endloop
  endfacet
  facet normal 0 0 1
    outer loop
      vertex 8.92 36.49 24.5
      vertex 6.92 -34.49 24.5
      vertex 8.92 -36.49 24.5
    endloop
  endfacet
  facet normal 0 -0 1
    outer loop
      vertex -8.92 -29 24.5
      vertex -8.92 -36.49 24.5
      vertex -6.92 -34.49 24.5
    endloop
  endfacet
  facet normal 0 -0 1
    outer loop
      vertex 6.92 -34.49 24.5
      vertex -6.92 -34.49 24.5
      vertex 8.92 -36.49 24.5
    endloop
  endfacet
  facet normal -0 0 1
    outer loop
      vertex -6.92 29 24.5
      vertex -6.92 34.49 24.5
      vertex -8.92 29 24.5
    endloop
  endfacet
  facet normal 0 -0 1
    outer loop
      vertex 6.92 34.49 24.5
      vertex 6.92 -34.49 24.5
      vertex 8.92 36.49 24.5
    endloop
  endfacet
  facet normal 0 1 0
    outer loop
      vertex -8.92 29 24.5
      vertex -8.92 29 44.5
      vertex -6.92 29 24.5
    endloop
  endfacet
  facet normal 0 1 0
    outer loop
      vertex -6.92 29 24.5
      vertex -8.92 29 44.5
      vertex -6.92 29 44.5
    endloop
  endfacet
  facet normal 0 -0 1
    outer loop
      vertex -8.92 29 44.5
      vertex -8.92 -29 44.5
      vertex -6.92 -29 44.5
    endloop
  endfacet
  facet normal 0 0 1
    outer loop
      vertex -6.92 29 44.5
      vertex -8.92 29 44.5
      vertex -6.92 -29 44.5
    endloop
  endfacet
  facet normal 0 -1 0
    outer loop
      vertex -8.92 -29 44.5
      vertex -8.92 -29 24.5
      vertex -6.92 -29 24.5
    endloop
  endfacet
  facet normal 0 -1 0
    outer loop
      vertex -6.92 -29 44.5
      vertex -8.92 -29 44.5
      vertex -6.92 -29 24.5
    endloop
  endfacet
  facet normal 1 0 -0
    outer loop
      vertex 8.92 -36.49 24.5
      vertex 8.92 -36.49 0
      vertex 8.92 36.49 0
    endloop
  endfacet
  facet normal 1 0 0
    outer loop
      vertex 8.92 36.49 24.5
      vertex 8.92 -36.49 24.5
      vertex 8.92 36.49 0
    endloop
  endfacet
  facet normal 1 0 0
    outer loop
      vertex -4.025 5.135 0
      vertex -4.025 5.135 10
      vertex -4.025 -5.135 10
    endloop
  endfacet
  facet normal 1 0 0
    outer loop
      vertex -4.025 -5.135 0
      vertex -4.025 5.135 0
      vertex -4.025 -5.135 10
    endloop
  endfacet
  facet normal 0 -1 0
    outer loop
      vertex 4.025 5.135 0
      vertex 4.025 5.135 10
      vertex -4.025 5.135 10
    endloop
  endfacet
  facet normal -0 -1 -0
    outer loop
      vertex -4.025 5.135 0
      vertex 4.025 5.135 0
      vertex -4.025 5.135 10
    endloop
  endfacet
  facet normal -1 0 0
    outer loop
      vertex 4.025 5.135 10
      vertex 4.025 5.135 0
      vertex 4.025 -5.135 10
    endloop
  endfacet
  facet normal -1 0 0
    outer loop
      vertex 4.025 -5.135 10
      vertex 4.025 5.135 0
      vertex 4.025 -5.135 0
    endloop
  endfacet
  facet normal 0 1 0
    outer loop
      vertex 4.025 -5.135 10
      vertex 4.025 -5.135 0
      vertex -4.025 -5.135 10
    endloop
  endfacet
  facet normal 0 1 -0
    outer loop
      vertex -4.025 -5.135 10
      vertex 4.025 -5.135 0
      vertex -4.025 -5.135 0
    endloop
  endfacet
  facet normal 1 0 -0
    outer loop
      vertex -6.92 -29 44.5
      vertex -6.92 -29 24.5
      vertex -6.92 29 24.5
    endloop
  endfacet
  facet normal 1 0 0
    outer loop
      vertex -6.92 29 44.5
      vertex -6.92 -29 44.5
      vertex -6.92 29 24.5
    endloop
  endfacet
  facet normal 1 0 0
    outer loop
      vertex -6.92 34.49 10
      vertex -6.92 34.49 24.5
      vertex -6.92 29 24.5
    endloop
  endfacet
  facet normal 1 0 0
    outer loop
      vertex -6.92 -34.49 24.5
      vertex -6.92 34.49 10
      vertex -6.92 -29 24.5
    endloop
  endfacet
  facet normal 1 0 0
    outer loop
      vertex -6.92 -29 24.5
      vertex -6.92 34.49 10
      vertex -6.92 29 24.5
    endloop
  endfacet
  facet normal 1 0 0
    outer loop
      vertex -6.92 -34.49 10
      vertex -6.92 34.49 10
      vertex -6.92 -34.49 24.5
    endloop
  endfacet
  facet normal 0 1 0
    outer loop
      vertex 6.92 -34.49 24.5
      vertex 6.92 -34.49 10
      vertex -6.92 -34.49 24.5
    endloop
  endfacet
  facet normal 0 1 -0
    outer loop
      vertex -6.92 -34.49 24.5
      vertex 6.92 -34.49 10
      vertex -6.92 -34.49 10
    endloop
  endfacet
  facet normal -1 0 0
    outer loop
      vertex 6.92 34.49 24.5
      vertex 6.92 34.49 10
      vertex 6.92 -34.49 24.5
    endloop
  endfacet
  facet normal -1 0 0
    outer loop
      vertex 6.92 -34.49 24.5
      vertex 6.92 34.49 10
      vertex 6.92 -34.49 10
    endloop
  endfacet
  facet normal 0 -1 0
    outer loop
      vertex 6.92 34.49 10
      vertex 6.92 34.49 24.5
      vertex -6.92 34.49 24.5
    endloop
  endfacet
  facet normal -0 -1 -0
    outer loop
      vertex -6.92 34.49 10
      vertex 6.92 34.49 10
      vertex -6.92 34.49 24.5
    endloop
  endfacet
  facet normal 0 0 1
    outer loop
      vertex 4.025 5.135 10
      vertex 6.92 34.49 10
      vertex -6.92 34.49 10
    endloop
  endfacet
  facet normal 0 0 1
    outer loop
      vertex -6.92 -34.49 10
      vertex -4.025 5.135 10
      vertex -6.92 34.49 10
    endloop
  endfacet
  facet normal 0 0 1
    outer loop
      vertex 6.92 -34.49 10
      vertex 6.92 34.49 10
      vertex 4.025 5.135 10
    endloop
  endfacet
  facet normal 0 -0 1
    outer loop
      vertex 4.025 -5.135 10
      vertex -4.025 -5.135 10
      vertex 6.92 -34.49 10
    endloop
  endfacet
  facet normal 0 0 1
    outer loop
      vertex 6.92 -34.49 10
      vertex 4.025 5.135 10
      vertex 4.025 -5.135 10
    endloop
  endfacet
  facet normal 0 0 1
    outer loop
      vertex -6.92 -34.49 10
      vertex -4.025 -5.135 10
      vertex -4.025 5.135 10
    endloop
  endfacet
  facet normal 0 0 1
    outer loop
      vertex -6.92 -34.49 10
      vertex 6.92 -34.49 10
      vertex -4.025 -5.135 10
    endloop
  endfacet
  facet normal 0 0 1
    outer loop
      vertex -4.025 5.135 10
      vertex 4.025 5.135 10
      vertex -6.92 34.49 10
    endloop
  endfacet
endsolid OpenSCAD_Model
