solid OpenSCAD_Model
  facet normal -1.000000 -0.000000 -0.000000
    outer loop
      vertex -10.420000 -37.980000 0.000000
      vertex -10.420000 -37.980000 39.500000
      vertex -10.420000 37.980000 0.000000
    endloop
  endfacet
  facet normal -1.000000 0.000000 0.000000
    outer loop
      vertex -10.420000 37.980000 0.000000
      vertex -10.420000 -37.980000 39.500000
      vertex -10.420000 -29.000000 39.500000
    endloop
  endfacet
  facet normal -1.000000 0.000000 0.000000
    outer loop
      vertex -10.420000 37.980000 0.000000
      vertex -10.420000 -29.000000 39.500000
      vertex -10.420000 -29.000000 54.500000
    endloop
  endfacet
  facet normal -1.000000 0.000000 0.000000
    outer loop
      vertex -10.420000 29.000000 39.500000
      vertex -10.420000 -29.000000 54.500000
      vertex -10.420000 29.000000 54.500000
    endloop
  endfacet
  facet normal -1.000000 0.000000 0.000000
    outer loop
      vertex -10.420000 37.980000 0.000000
      vertex -10.420000 -29.000000 54.500000
      vertex -10.420000 29.000000 39.500000
    endloop
  endfacet
  facet normal -1.000000 0.000000 0.000000
    outer loop
      vertex -10.420000 37.980000 39.500000
      vertex -10.420000 37.980000 0.000000
      vertex -10.420000 29.000000 39.500000
    endloop
  endfacet
  facet normal 0.000000 -1.000000 0.000000
    outer loop
      vertex -10.420000 -37.980000 39.500000
      vertex -10.420000 -37.980000 0.000000
      vertex 10.420000 -37.980000 0.000000
    endloop
  endfacet
  facet normal 0.000000 -1.000000 0.000000
    outer loop
      vertex 10.420000 -37.980000 39.500000
      vertex -10.420000 -37.980000 39.500000
      vertex 10.420000 -37.980000 0.000000
    endloop
  endfacet
  facet normal 0.000000 0.000000 -1.000000
    outer loop
      vertex 3.925000 -5.125000 0.000000
      vertex 10.420000 -37.980000 0.000000
      vertex -3.925000 -5.125000 0.000000
    endloop
  endfacet
  facet normal 0.000000 -0.000000 -1.000000
    outer loop
      vertex 3.925000 5.125000 0.000000
      vertex -10.420000 37.980000 0.000000
      vertex 10.420000 37.980000 0.000000
    endloop
  endfacet
  facet normal 0.000000 -0.000000 -1.000000
    outer loop
      vertex -10.420000 -37.980000 0.000000
      vertex -10.420000 37.980000 0.000000
      vertex -3.925000 5.125000 0.000000
    endloop
  endfacet
  facet normal 0.000000 0.000000 -1.000000
    outer loop
      vertex -10.420000 -37.980000 0.000000
      vertex -3.925000 5.125000 0.000000
      vertex -3.925000 -5.125000 0.000000
    endloop
  endfacet
  facet normal -0.000000 0.000000 -1.000000
    outer loop
      vertex -10.420000 -37.980000 0.000000
      vertex -3.925000 -5.125000 0.000000
      vertex 10.420000 -37.980000 0.000000
    endloop
  endfacet
  facet normal 0.000000 0.000000 -1.000000
    outer loop
      vertex 10.420000 -37.980000 0.000000
      vertex 3.925000 -5.125000 0.000000
      vertex 10.420000 37.980000 0.000000
    endloop
  endfacet
  facet normal 0.000000 -0.000000 -1.000000
    outer loop
      vertex 3.925000 -5.125000 0.000000
      vertex 3.925000 5.125000 0.000000
      vertex 10.420000 37.980000 0.000000
    endloop
  endfacet
  facet normal -0.000000 -0.000000 -1.000000
    outer loop
      vertex -3.925000 5.125000 0.000000
      vertex -10.420000 37.980000 0.000000
      vertex 3.925000 5.125000 0.000000
    endloop
  endfacet
  facet normal 0.000000 1.000000 0.000000
    outer loop
      vertex -10.420000 37.980000 0.000000
      vertex -10.420000 37.980000 39.500000
      vertex 10.420000 37.980000 0.000000
    endloop
  endfacet
  facet normal 0.000000 1.000000 0.000000
    outer loop
      vertex 10.420000 37.980000 0.000000
      vertex -10.420000 37.980000 39.500000
      vertex 10.420000 37.980000 39.500000
    endloop
  endfacet
  facet normal 0.000000 -0.000000 1.000000
    outer loop
      vertex -10.420000 37.980000 39.500000
      vertex -10.420000 29.000000 39.500000
      vertex -6.920000 29.000000 39.500000
    endloop
  endfacet
  facet normal -0.000000 0.000000 1.000000
    outer loop
      vertex 10.420000 34.480000 39.500000
      vertex -10.420000 37.980000 39.500000
      vertex -6.920000 34.480000 39.500000
    endloop
  endfacet
  facet normal -0.000000 0.000000 1.000000
    outer loop
      vertex -6.920000 34.480000 39.500000
      vertex -10.420000 37.980000 39.500000
      vertex -6.920000 29.000000 39.500000
    endloop
  endfacet
  facet normal 0.000000 0.000000 1.000000
    outer loop
      vertex 10.420000 37.980000 39.500000
      vertex -10.420000 37.980000 39.500000
      vertex 10.420000 34.480000 39.500000
    endloop
  endfacet
  facet normal 0.000000 1.000000 0.000000
    outer loop
      vertex -10.420000 29.000000 39.500000
      vertex -10.420000 29.000000 54.500000
      vertex -6.920000 29.000000 39.500000
    endloop
  endfacet
  facet normal 0.000000 1.000000 0.000000
    outer loop
      vertex -6.920000 29.000000 39.500000
      vertex -10.420000 29.000000 54.500000
      vertex -6.920000 29.000000 54.500000
    endloop
  endfacet
  facet normal 0.000000 -0.000000 1.000000
    outer loop
      vertex -10.420000 29.000000 54.500000
      vertex -10.420000 -29.000000 54.500000
      vertex -6.920000 -29.000000 54.500000
    endloop
  endfacet
  facet normal 0.000000 0.000000 1.000000
    outer loop
      vertex -6.920000 29.000000 54.500000
      vertex -10.420000 29.000000 54.500000
      vertex -6.920000 -29.000000 54.500000
    endloop
  endfacet
  facet normal 0.000000 -1.000000 0.000000
    outer loop
      vertex -10.420000 -29.000000 54.500000
      vertex -10.420000 -29.000000 39.500000
      vertex -6.920000 -29.000000 39.500000
    endloop
  endfacet
  facet normal 0.000000 -1.000000 0.000000
    outer loop
      vertex -6.920000 -29.000000 54.500000
      vertex -10.420000 -29.000000 54.500000
      vertex -6.920000 -29.000000 39.500000
    endloop
  endfacet
  facet normal 0.000000 -0.000000 1.000000
    outer loop
      vertex -6.920000 -34.480000 39.500000
      vertex -10.420000 -37.980000 39.500000
      vertex 10.420000 -37.980000 39.500000
    endloop
  endfacet
  facet normal 0.000000 0.000000 1.000000
    outer loop
      vertex -6.920000 -34.480000 39.500000
      vertex -6.920000 -29.000000 39.500000
      vertex -10.420000 -29.000000 39.500000
    endloop
  endfacet
  facet normal 0.000000 -0.000000 1.000000
    outer loop
      vertex -10.420000 -29.000000 39.500000
      vertex -10.420000 -37.980000 39.500000
      vertex -6.920000 -34.480000 39.500000
    endloop
  endfacet
  facet normal 0.000000 0.000000 1.000000
    outer loop
      vertex 10.420000 -34.480000 39.500000
      vertex -6.920000 -34.480000 39.500000
      vertex 10.420000 -37.980000 39.500000
    endloop
  endfacet
  facet normal 1.000000 0.000000 -0.000000
    outer loop
      vertex 10.420000 -34.480000 24.500000
      vertex 10.420000 -37.980000 0.000000
      vertex 10.420000 37.980000 0.000000
    endloop
  endfacet
  facet normal 1.000000 0.000000 0.000000
    outer loop
      vertex 10.420000 -34.480000 24.500000
      vertex 10.420000 -34.480000 39.500000
      vertex 10.420000 -37.980000 39.500000
    endloop
  endfacet
  facet normal 1.000000 0.000000 0.000000
    outer loop
      vertex 10.420000 37.980000 39.500000
      vertex 10.420000 34.480000 39.500000
      vertex 10.420000 37.980000 0.000000
    endloop
  endfacet
  facet normal 1.000000 0.000000 -0.000000
    outer loop
      vertex 10.420000 34.480000 39.500000
      vertex 10.420000 34.480000 24.500000
      vertex 10.420000 37.980000 0.000000
    endloop
  endfacet
  facet normal 1.000000 0.000000 -0.000000
    outer loop
      vertex 10.420000 -37.980000 39.500000
      vertex 10.420000 -37.980000 0.000000
      vertex 10.420000 -34.480000 24.500000
    endloop
  endfacet
  facet normal 1.000000 0.000000 -0.000000
    outer loop
      vertex 10.420000 34.480000 24.500000
      vertex 10.420000 -34.480000 24.500000
      vertex 10.420000 37.980000 0.000000
    endloop
  endfacet
  facet normal 1.000000 0.000000 0.000000
    outer loop
      vertex -3.925000 5.125000 0.000000
      vertex -3.925000 5.125000 10.000000
      vertex -3.925000 -5.125000 10.000000
    endloop
  endfacet
  facet normal 1.000000 0.000000 0.000000
    outer loop
      vertex -3.925000 -5.125000 0.000000
      vertex -3.925000 5.125000 0.000000
      vertex -3.925000 -5.125000 10.000000
    endloop
  endfacet
  facet normal 0.000000 -1.000000 0.000000
    outer loop
      vertex 3.925000 5.125000 0.000000
      vertex 3.925000 5.125000 10.000000
      vertex -3.925000 5.125000 10.000000
    endloop
  endfacet
  facet normal -0.000000 -1.000000 -0.000000
    outer loop
      vertex -3.925000 5.125000 0.000000
      vertex 3.925000 5.125000 0.000000
      vertex -3.925000 5.125000 10.000000
    endloop
  endfacet
  facet normal -1.000000 0.000000 0.000000
    outer loop
      vertex 3.925000 5.125000 10.000000
      vertex 3.925000 5.125000 0.000000
      vertex 3.925000 -5.125000 10.000000
    endloop
  endfacet
  facet normal -1.000000 0.000000 0.000000
    outer loop
      vertex 3.925000 -5.125000 10.000000
      vertex 3.925000 5.125000 0.000000
      vertex 3.925000 -5.125000 0.000000
    endloop
  endfacet
  facet normal 0.000000 1.000000 0.000000
    outer loop
      vertex 3.925000 -5.125000 10.000000
      vertex 3.925000 -5.125000 0.000000
      vertex -3.925000 -5.125000 10.000000
    endloop
  endfacet
  facet normal 0.000000 1.000000 -0.000000
    outer loop
      vertex -3.925000 -5.125000 10.000000
      vertex 3.925000 -5.125000 0.000000
      vertex -3.925000 -5.125000 0.000000
    endloop
  endfacet
  facet normal 0.000000 -1.000000 0.000000
    outer loop
      vertex -6.920000 34.480000 39.500000
      vertex -6.920000 34.480000 24.500000
      vertex 6.920000 34.480000 24.500000
    endloop
  endfacet
  facet normal 0.000000 -1.000000 0.000000
    outer loop
      vertex 10.420000 34.480000 39.500000
      vertex -6.920000 34.480000 39.500000
      vertex 10.420000 34.480000 24.500000
    endloop
  endfacet
  facet normal 0.000000 -1.000000 0.000000
    outer loop
      vertex 10.420000 34.480000 24.500000
      vertex -6.920000 34.480000 39.500000
      vertex 6.920000 34.480000 24.500000
    endloop
  endfacet
  facet normal 1.000000 0.000000 -0.000000
    outer loop
      vertex -6.920000 -34.480000 39.500000
      vertex -6.920000 -34.480000 24.500000
      vertex -6.920000 34.480000 24.500000
    endloop
  endfacet
  facet normal 1.000000 0.000000 -0.000000
    outer loop
      vertex -6.920000 -29.000000 39.500000
      vertex -6.920000 -34.480000 39.500000
      vertex -6.920000 34.480000 24.500000
    endloop
  endfacet
  facet normal 1.000000 0.000000 -0.000000
    outer loop
      vertex -6.920000 29.000000 39.500000
      vertex -6.920000 -29.000000 39.500000
      vertex -6.920000 34.480000 24.500000
    endloop
  endfacet
  facet normal 1.000000 0.000000 0.000000
    outer loop
      vertex -6.920000 34.480000 39.500000
      vertex -6.920000 29.000000 39.500000
      vertex -6.920000 34.480000 24.500000
    endloop
  endfacet
  facet normal 1.000000 0.000000 0.000000
    outer loop
      vertex -6.920000 29.000000 54.500000
      vertex -6.920000 -29.000000 39.500000
      vertex -6.920000 29.000000 39.500000
    endloop
  endfacet
  facet normal 1.000000 0.000000 -0.000000
    outer loop
      vertex -6.920000 -29.000000 54.500000
      vertex -6.920000 -29.000000 39.500000
      vertex -6.920000 29.000000 54.500000
    endloop
  endfacet
  facet normal 0.000000 1.000000 0.000000
    outer loop
      vertex -6.920000 -34.480000 24.500000
      vertex -6.920000 -34.480000 39.500000
      vertex 6.920000 -34.480000 24.500000
    endloop
  endfacet
  facet normal 0.000000 1.000000 0.000000
    outer loop
      vertex 6.920000 -34.480000 24.500000
      vertex -6.920000 -34.480000 39.500000
      vertex 10.420000 -34.480000 39.500000
    endloop
  endfacet
  facet normal 0.000000 1.000000 0.000000
    outer loop
      vertex 6.920000 -34.480000 24.500000
      vertex 10.420000 -34.480000 39.500000
      vertex 10.420000 -34.480000 24.500000
    endloop
  endfacet
  facet normal 0.000000 -0.000000 1.000000
    outer loop
      vertex 6.920000 34.480000 24.500000
      vertex 6.920000 -34.480000 24.500000
      vertex 10.420000 -34.480000 24.500000
    endloop
  endfacet
  facet normal 0.000000 0.000000 1.000000
    outer loop
      vertex 10.420000 34.480000 24.500000
      vertex 6.920000 34.480000 24.500000
      vertex 10.420000 -34.480000 24.500000
    endloop
  endfacet
  facet normal 0.000000 0.000000 1.000000
    outer loop
      vertex 3.925000 5.125000 10.000000
      vertex 6.920000 34.480000 10.000000
      vertex -6.920000 34.480000 10.000000
    endloop
  endfacet
  facet normal 0.000000 0.000000 1.000000
    outer loop
      vertex -6.920000 -34.480000 10.000000
      vertex -3.925000 5.125000 10.000000
      vertex -6.920000 34.480000 10.000000
    endloop
  endfacet
  facet normal 0.000000 0.000000 1.000000
    outer loop
      vertex 6.920000 -34.480000 10.000000
      vertex 6.920000 34.480000 10.000000
      vertex 3.925000 5.125000 10.000000
    endloop
  endfacet
  facet normal 0.000000 -0.000000 1.000000
    outer loop
      vertex 3.925000 -5.125000 10.000000
      vertex -3.925000 -5.125000 10.000000
      vertex 6.920000 -34.480000 10.000000
    endloop
  endfacet
  facet normal 0.000000 0.000000 1.000000
    outer loop
      vertex 6.920000 -34.480000 10.000000
      vertex 3.925000 5.125000 10.000000
      vertex 3.925000 -5.125000 10.000000
    endloop
  endfacet
  facet normal 0.000000 0.000000 1.000000
    outer loop
      vertex -6.920000 -34.480000 10.000000
      vertex -3.925000 -5.125000 10.000000
      vertex -3.925000 5.125000 10.000000
    endloop
  endfacet
  facet normal 0.000000 0.000000 1.000000
    outer loop
      vertex -6.920000 -34.480000 10.000000
      vertex 6.920000 -34.480000 10.000000
      vertex -3.925000 -5.125000 10.000000
    endloop
  endfacet
  facet normal 0.000000 0.000000 1.000000
    outer loop
      vertex -3.925000 5.125000 10.000000
      vertex 3.925000 5.125000 10.000000
      vertex -6.920000 34.480000 10.000000
    endloop
  endfacet
  facet normal -1.000000 0.000000 0.000000
    outer loop
      vertex 6.920000 34.480000 24.500000
      vertex 6.920000 34.480000 10.000000
      vertex 6.920000 -34.480000 24.500000
    endloop
  endfacet
  facet normal -1.000000 0.000000 0.000000
    outer loop
      vertex 6.920000 -34.480000 24.500000
      vertex 6.920000 34.480000 10.000000
      vertex 6.920000 -34.480000 10.000000
    endloop
  endfacet
  facet normal 0.000000 -1.000000 0.000000
    outer loop
      vertex 6.920000 34.480000 10.000000
      vertex 6.920000 34.480000 24.500000
      vertex -6.920000 34.480000 24.500000
    endloop
  endfacet
  facet normal -0.000000 -1.000000 -0.000000
    outer loop
      vertex -6.920000 34.480000 10.000000
      vertex 6.920000 34.480000 10.000000
      vertex -6.920000 34.480000 24.500000
    endloop
  endfacet
  facet normal 1.000000 0.000000 0.000000
    outer loop
      vertex -6.920000 34.480000 10.000000
      vertex -6.920000 34.480000 24.500000
      vertex -6.920000 -34.480000 24.500000
    endloop
  endfacet
  facet normal 1.000000 0.000000 0.000000
    outer loop
      vertex -6.920000 -34.480000 10.000000
      vertex -6.920000 34.480000 10.000000
      vertex -6.920000 -34.480000 24.500000
    endloop
  endfacet
  facet normal 0.000000 1.000000 0.000000
    outer loop
      vertex 6.920000 -34.480000 24.500000
      vertex 6.920000 -34.480000 10.000000
      vertex -6.920000 -34.480000 24.500000
    endloop
  endfacet
  facet normal 0.000000 1.000000 -0.000000
    outer loop
      vertex -6.920000 -34.480000 24.500000
      vertex 6.920000 -34.480000 10.000000
      vertex -6.920000 -34.480000 10.000000
    endloop
  endfacet
endsolid OpenSCAD_Model
