solid OpenSCAD_Model
  facet normal -1 -0 -0
    outer loop
      vertex -11 -39 0
      vertex -11 -39 24.5
      vertex -11 39 0
    endloop
  endfacet
  facet normal -1 0 0
    outer loop
      vertex -11 39 0
      vertex -11 -39 24.5
      vertex -11 39 24.5
    endloop
  endfacet
  facet normal 0 -1 0
    outer loop
      vertex -11 -39 24.5
      vertex -11 -39 0
      vertex 11 -39 0
    endloop
  endfacet
  facet normal 0 -1 0
    outer loop
      vertex 11 -39 24.5
      vertex -11 -39 24.5
      vertex 11 -39 0
    endloop
  endfacet
  facet normal 0 0 -1
    outer loop
      vertex 3.925 -5 0
      vertex 11 -39 0
      vertex -3.925 -5 0
    endloop
  endfacet
  facet normal 0 -0 -1
    outer loop
      vertex 3.925 5 0
      vertex -11 39 0
      vertex 11 39 0
    endloop
  endfacet
  facet normal 0 -0 -1
    outer loop
      vertex -11 -39 0
      vertex -11 39 0
      vertex -3.925 5 0
    endloop
  endfacet
  facet normal 0 0 -1
    outer loop
      vertex -11 -39 0
      vertex -3.925 5 0
      vertex -3.925 -5 0
    endloop
  endfacet
  facet normal -0 0 -1
    outer loop
      vertex -11 -39 0
      vertex -3.925 -5 0
      vertex 11 -39 0
    endloop
  endfacet
  facet normal 0 0 -1
    outer loop
      vertex 11 -39 0
      vertex 3.925 -5 0
      vertex 11 39 0
    endloop
  endfacet
  facet normal 0 -0 -1
    outer loop
      vertex 3.925 -5 0
      vertex 3.925 5 0
      vertex 11 39 0
    endloop
  endfacet
  facet normal -0 -0 -1
    outer loop
      vertex -3.925 5 0
      vertex -11 39 0
      vertex 3.925 5 0
    endloop
  endfacet
  facet normal 0 1 0
    outer loop
      vertex -11 39 0
      vertex -11 39 24.5
      vertex 11 39 0
    endloop
  endfacet
  facet normal 0 1 0
    outer loop
      vertex 11 39 0
      vertex -11 39 24.5
      vertex 11 39 24.5
    endloop
  endfacet
  facet normal 0 -0 1
    outer loop
      vertex -6 -34 24.5
      vertex -11 -39 24.5
      vertex 11 -39 24.5
    endloop
  endfacet
  facet normal 0 -0 1
    outer loop
      vertex 6 -34 24.5
      vertex -6 -34 24.5
      vertex 11 -39 24.5
    endloop
  endfacet
  facet normal 0 -0 1
    outer loop
      vertex -11 39 24.5
      vertex -11 -39 24.5
      vertex -6 -34 24.5
    endloop
  endfacet
  facet normal 0 0 1
    outer loop
      vertex 11 39 24.5
      vertex -11 39 24.5
      vertex -6 34 24.5
    endloop
  endfacet
  facet normal 0 0 1
    outer loop
      vertex 11 39 24.5
      vertex 6 34 24.5
      vertex 11 -39 24.5
    endloop
  endfacet
  facet normal 0 0 1
    outer loop
      vertex 11 39 24.5
      vertex -6 34 24.5
      vertex 6 34 24.5
    endloop
  endfacet
  facet normal 0 -0 1
    outer loop
      vertex 6 34 24.5
      vertex 6 -34 24.5
      vertex 11 -39 24.5
    endloop
  endfacet
  facet normal 0 0 1
    outer loop
      vertex -6 -34 24.5
      vertex -6 34 24.5
      vertex -11 39 24.5
    endloop
  endfacet
  facet normal 1 0 -0
    outer loop
      vertex 11 -39 24.5
      vertex 11 -39 0
      vertex 11 39 0
    endloop
  endfacet
  facet normal 1 0 0
    outer loop
      vertex 11 39 24.5
      vertex 11 -39 24.5
      vertex 11 39 0
    endloop
  endfacet
  facet normal 1 0 0
    outer loop
      vertex -3.925 5 0
      vertex -3.925 5 10
      vertex -3.925 -5 10
    endloop
  endfacet
  facet normal 1 0 0
    outer loop
      vertex -3.925 -5 0
      vertex -3.925 5 0
      vertex -3.925 -5 10
    endloop
  endfacet
  facet normal 0 -1 0
    outer loop
      vertex 3.925 5 0
      vertex 3.925 5 10
      vertex -3.925 5 10
    endloop
  endfacet
  facet normal -0 -1 -0
    outer loop
      vertex -3.925 5 0
      vertex 3.925 5 0
      vertex -3.925 5 10
    endloop
  endfacet
  facet normal -1 0 0
    outer loop
      vertex 3.925 5 10
      vertex 3.925 5 0
      vertex 3.925 -5 10
    endloop
  endfacet
  facet normal -1 0 0
    outer loop
      vertex 3.925 -5 10
      vertex 3.925 5 0
      vertex 3.925 -5 0
    endloop
  endfacet
  facet normal 0 1 0
    outer loop
      vertex 3.925 -5 10
      vertex 3.925 -5 0
      vertex -3.925 -5 10
    endloop
  endfacet
  facet normal 0 1 -0
    outer loop
      vertex -3.925 -5 10
      vertex 3.925 -5 0
      vertex -3.925 -5 0
    endloop
  endfacet
  facet normal 1 0 0
    outer loop
      vertex -6 34 10
      vertex -6 34 24.5
      vertex -6 -34 24.5
    endloop
  endfacet
  facet normal 1 0 0
    outer loop
      vertex -6 -34 10
      vertex -6 34 10
      vertex -6 -34 24.5
    endloop
  endfacet
  facet normal 0 1 0
    outer loop
      vertex 6 -34 24.5
      vertex 6 -34 10
      vertex -6 -34 24.5
    endloop
  endfacet
  facet normal 0 1 -0
    outer loop
      vertex -6 -34 24.5
      vertex 6 -34 10
      vertex -6 -34 10
    endloop
  endfacet
  facet normal -1 0 0
    outer loop
      vertex 6 34 24.5
      vertex 6 34 10
      vertex 6 -34 24.5
    endloop
  endfacet
  facet normal -1 0 0
    outer loop
      vertex 6 -34 24.5
      vertex 6 34 10
      vertex 6 -34 10
    endloop
  endfacet
  facet normal 0 -1 0
    outer loop
      vertex 6 34 10
      vertex 6 34 24.5
      vertex -6 34 24.5
    endloop
  endfacet
  facet normal -0 -1 -0
    outer loop
      vertex -6 34 10
      vertex 6 34 10
      vertex -6 34 24.5
    endloop
  endfacet
  facet normal 0 0 1
    outer loop
      vertex 3.925 5 10
      vertex 6 34 10
      vertex -6 34 10
    endloop
  endfacet
  facet normal 0 0 1
    outer loop
      vertex -6 -34 10
      vertex -3.925 5 10
      vertex -6 34 10
    endloop
  endfacet
  facet normal 0 0 1
    outer loop
      vertex 6 -34 10
      vertex 6 34 10
      vertex 3.925 5 10
    endloop
  endfacet
  facet normal 0 -0 1
    outer loop
      vertex 3.925 -5 10
      vertex -3.925 -5 10
      vertex 6 -34 10
    endloop
  endfacet
  facet normal 0 0 1
    outer loop
      vertex 6 -34 10
      vertex 3.925 5 10
      vertex 3.925 -5 10
    endloop
  endfacet
  facet normal 0 0 1
    outer loop
      vertex -6 -34 10
      vertex -3.925 -5 10
      vertex -3.925 5 10
    endloop
  endfacet
  facet normal 0 0 1
    outer loop
      vertex -6 -34 10
      vertex 6 -34 10
      vertex -3.925 -5 10
    endloop
  endfacet
  facet normal 0 0 1
    outer loop
      vertex -3.925 5 10
      vertex 3.925 5 10
      vertex -6 34 10
    endloop
  endfacet
endsolid OpenSCAD_Model
